{
  "accessors": [
    {
      "bufferView": 2,
      "componentType": 5126,
      "count": 10580,
      "max": [
        62.789424896240234,
        1.7625572681427002,
        1.072660207748413
      ],
      "min": [
        -30.885456085205078,
        -1.7677011489868164,
        -0.9273397326469421
      ],
      "type": "VEC3"
    },
    {
      "bufferView": 2,
      "byteOffset": 126960,
      "componentType": 5126,
      "count": 10580,
      "max": [
        1.0,
        1.0,
        1.0
      ],
      "min": [
        -1.0,
        -1.0,
        -1.0
      ],
      "type": "VEC3"
    },
    {
      "bufferView": 1,
      "componentType": 5126,
      "count": 10580,
      "max": [
        0.9999999403953552,
        1.0
      ],
      "min": [
        0.0,
        0.0
      ],
      "type": "VEC2"
    },
    {
      "bufferView": 0,
      "componentType": 5125,
      "count": 16488,
      "type": "SCALAR"
    }
  ],
  "asset": {
    "extras": {
      "author": "Dandushik (https://sketchfab.com/Dandushik)",
      "license": "CC-BY-4.0 (http://creativecommons.org/licenses/by/4.0/)",
      "source": "https://sketchfab.com/3d-models/classical-fence-6e320a57c8814414babaab751db24517",
      "title": "Classical Fence"
    },
    "generator": "Sketchfab-16.16.0",
    "version": "2.0"
  },
  "bufferViews": [
    {
      "buffer": 0,
      "byteLength": 65952,
      "name": "floatBufferViews",
      "target": 34963
    },
    {
      "buffer": 0,
      "byteLength": 84640,
      "byteOffset": 65952,
      "byteStride": 8,
      "name": "floatBufferViews",
      "target": 34962
    },
    {
      "buffer": 0,
      "byteLength": 253920,
      "byteOffset": 150592,
      "byteStride": 12,
      "name": "floatBufferViews",
      "target": 34962
    }
  ],
  "buffers": [
    {
      "byteLength": 404512,
      "uri": "scene.bin"
    }
  ],
  "materials": [
    {
      "doubleSided": true,
      "name": "Material.004",
      "pbrMetallicRoughness": {
        "baseColorFactor": [
          0.20617866155871195,
          0.20617866155871195,
          0.20617866155871195,
          1.0
        ],
        "roughnessFactor": 0.46731807964292027
      }
    }
  ],
  "meshes": [
    {
      "name": "Fence_Material.004_0",
      "primitives": [
        {
          "attributes": {
            "NORMAL": 1,
            "POSITION": 0,
            "TEXCOORD_0": 2
          },
          "indices": 3,
          "material": 0,
          "mode": 4
        }
      ]
    }
  ],
  "nodes": [
    {
      "children": [
        1
      ],
      "matrix": [
        1.0,
        0.0,
        0.0,
        0.0,
        0.0,
        2.220446049250313e-16,
        -1.0,
        0.0,
        0.0,
        1.0,
        2.220446049250313e-16,
        0.0,
        0.0,
        0.0,
        0.0,
        1.0
      ],
      "name": "Sketchfab_model"
    },
    {
      "children": [
        2
      ],
      "matrix": [
        0.009999999776482582,
        0.0,
        0.0,
        0.0,
        0.0,
        0.0,
        0.009999999776482582,
        0.0,
        0.0,
        -0.009999999776482582,
        0.0,
        0.0,
        0.0,
        0.0,
        0.0,
        1.0
      ],
      "name": "dc0abbf93d0c4868ba6d46b36ecc0818.fbx"
    },
    {
      "children": [
        3
      ],
      "name": "RootNode"
    },
    {
      "children": [
        4
      ],
      "matrix": [
        -3.086641056927706e-07,
        -7.061411380767804,
        4.2089286678922107e-07,
        0.0,
        -1.1504499600032318e-06,
        -4.2089281661487546e-07,
        -7.061411380767716,
        0.0,
        362.8098754882761,
        -1.585892743015006e-05,
        -5.910923148517652e-05,
        0.0,
        -43.5520133972168,
        443.26678466796875,
        -0.018161317333579063,
        1.0
      ],
      "name": "Fence"
    },
    {
      "mesh": 0,
      "name": "Fence_Material.004_0"
    }
  ],
  "scene": 0,
  "scenes": [
    {
      "name": "Sketchfab_Scene",
      "nodes": [
        0
      ]
    }
  ]
}
